<?xml version="1.0" standalone="no"?>
<!DOCTYPE svg PUBLIC "-//W3C//DTD SVG 20010904//EN"
 "http://www.w3.org/TR/2001/REC-SVG-20010904/DTD/svg10.dtd">
<svg version="1.0" xmlns="http://www.w3.org/2000/svg"
 width="2520.000000pt" height="2520.000000pt" viewBox="0 0 2520.000000 2520.000000"
 preserveAspectRatio="xMidYMid meet">
<metadata>
Created by potrace 1.14, written by Peter Selinger 2001-2017
</metadata>
<g transform="translate(0.000000,2520.000000) scale(0.100000,-0.100000)"
fill="#000000" stroke="none">
<path d="M11895 24739 c-1343 -115 -2543 -824 -3294 -1947 -418 -626 -664
-1349 -721 -2127 -14 -193 -14 -15232 0 -15435 56 -790 308 -1521 752 -2176
484 -714 1203 -1291 2003 -1607 493 -194 973 -291 1510 -304 929 -22 1791 230
2560 748 255 171 450 335 685 575 681 696 1093 1560 1217 2554 17 139 18 474
18 7925 0 7451 -1 7786 -18 7925 -129 1030 -563 1914 -1289 2625 -351 345
-683 582 -1118 799 -458 228 -937 370 -1460 432 -161 19 -681 27 -845 13z
m825 -324 c652 -80 1246 -299 1785 -658 998 -663 1665 -1757 1790 -2934 l7
-63 -1056 0 -1056 0 0 -115 0 -115 1065 0 1065 0 0 -320 0 -320 -665 0 -665 0
0 -120 0 -120 665 0 665 0 0 -320 0 -320 -665 0 -665 0 0 -115 0 -115 665 0
665 0 0 -320 0 -320 -665 0 -665 0 0 -120 0 -120 665 0 665 0 0 -315 0 -315
-1062 -2 -1063 -3 -3 -117 -3 -118 1066 0 1065 0 0 -320 0 -320 -665 0 -665 0
0 -120 0 -120 665 0 665 0 0 -315 0 -315 -665 0 -665 0 0 -120 0 -120 665 0
665 0 0 -320 0 -320 -665 0 -665 0 0 -120 0 -120 665 0 665 0 0 -315 0 -315
-1062 -2 -1063 -3 -3 -117 -3 -118 1066 0 1065 0 0 -320 0 -320 -665 0 -665 0
0 -120 0 -120 665 0 665 0 0 -315 0 -315 -665 0 -665 0 0 -120 0 -120 665 0
665 0 0 -320 0 -320 -665 0 -665 0 0 -120 0 -120 665 0 665 0 0 -315 0 -315
-1062 -2 -1063 -3 -3 -117 -3 -118 1066 0 1065 0 0 -320 0 -320 -665 0 -665 0
0 -115 0 -115 665 0 665 0 0 -320 0 -320 -665 0 -665 0 0 -120 0 -120 665 0
665 0 0 -320 0 -320 -665 0 -665 0 0 -115 0 -115 666 0 665 0 -4 -1102 c-4
-1198 -3 -1193 -63 -1518 -218 -1189 -952 -2217 -2009 -2816 -839 -474 -1834
-633 -2790 -443 -1533 304 -2770 1481 -3150 2998 -60 237 -97 478 -115 731
-14 203 -14 15184 0 15375 30 398 107 765 235 1120 526 1451 1843 2490 3370
2659 217 24 213 24 515 20 175 -2 333 -9 410 -19z"/>
<path d="M13333 21410 c-32 -170 -182 -1357 -397 -3160 -80 -668 -153 -1269
-161 -1335 -8 -67 -15 -124 -15 -128 0 -4 -362 -7 -805 -7 l-805 0 0 -4832 0
-4833 -90 -53 c-201 -118 -454 -338 -607 -527 -148 -183 -296 -444 -377 -666
-41 -113 -89 -296 -111 -429 -22 -130 -31 -448 -16 -591 76 -740 489 -1387
1126 -1767 797 -474 1820 -419 2560 138 225 169 391 345 546 579 193 291 314
609 364 961 24 166 24 480 1 635 -76 498 -282 925 -618 1279 -143 153 -408
359 -541 422 l-37 18 -2 7180 c-2 5707 -6 7168 -15 7116z"/>
</g>
</svg>
